<svg width="160" height="160" viewBox="0 0 160 160" fill="none" xmlns="http://www.w3.org/2000/svg"><path d="M131.52 85.96L126.21 89.77L126.26 85.97H119.01V73.47V66.29H142.14V35.2H120.94V19.04H93.41V35.2V46.57H78.27L72.32 50.23L71.66 46.57H36.42V19.04H21.62V46.57H31.03V60.48H69.57V72.15H12.26V91.39H28.45V81.19H47.97V111.52H39.3L34.67 114.47L34.21 111.52H28.45V111.87H21.62V126.13H53.97V138.4H132.32V112.6H142.79L142.82 85.93L131.52 85.96Z" fill="#E6E6E6"></path><path d="M34.32 115.23L33.82 111.98H28V80.73H48.43V112H39.43L34.32 115.23ZM28.91 111.06H34.6L35 113.7L39.15 111.06H47.49V81.65H28.91V111.06Z" fill="#E8E8E8"></path><path d="M45.6327 28.1539H41.2484V31.7392H46.3414V32.8301H39.9143V22.7134H46.2719V23.8112H41.2484V27.063H45.6327V28.1539Z" fill="#F2F2F2"></path><path d="M51.7124 28.7376H49.3361V32.8301H47.9951V22.7134H51.3442C52.4837 22.7134 53.3592 22.9728 53.9706 23.4916C54.5867 24.0104 54.8947 24.7655 54.8947 25.7568C54.8947 26.3867 54.7233 26.9356 54.3805 27.4035C54.0424 27.8713 53.5699 28.2211 52.9631 28.4527L55.3394 32.7467V32.8301H53.9081L51.7124 28.7376ZM49.3361 27.6467H51.3859C52.0483 27.6467 52.574 27.4753 52.9631 27.1325C53.3568 26.7897 53.5537 26.3311 53.5537 25.7568C53.5537 25.1314 53.3661 24.652 52.9909 24.3185C52.6203 23.985 52.083 23.8159 51.3789 23.8112H49.3361V27.6467Z" fill="#F2F2F2"></path><path d="M60.4811 28.7376H58.1048V32.8301H56.7638V22.7134H60.1128C61.2524 22.7134 62.1278 22.9728 62.7393 23.4916C63.3554 24.0104 63.6634 24.7655 63.6634 25.7568C63.6634 26.3867 63.492 26.9356 63.1492 27.4035C62.8111 27.8713 62.3386 28.2211 61.7318 28.4527L64.1081 32.7467V32.8301H62.6767L60.4811 28.7376ZM58.1048 27.6467H60.1545C60.8169 27.6467 61.3427 27.4753 61.7318 27.1325C62.1255 26.7897 62.3224 26.3311 62.3224 25.7568C62.3224 25.1314 62.1348 24.652 61.7596 24.3185C61.389 23.985 60.8517 23.8159 60.1476 23.8112H58.1048V27.6467Z" fill="#F2F2F2"></path><path d="M73.3215 28.0983C73.3215 29.0896 73.1547 29.9558 72.8212 30.697C72.4877 31.4335 72.0152 31.9963 71.4037 32.3854C70.7923 32.7745 70.0789 32.969 69.2637 32.969C68.4669 32.969 67.7605 32.7745 67.1445 32.3854C66.5284 31.9916 66.049 31.4335 65.7062 30.7109C65.368 29.9836 65.1943 29.1429 65.1851 28.1886V27.4591C65.1851 26.4863 65.3541 25.6271 65.6923 24.8813C66.0304 24.1355 66.5075 23.5657 67.1236 23.172C67.7443 22.7736 68.4531 22.5745 69.2498 22.5745C70.0604 22.5745 70.7738 22.7713 71.3898 23.1651C72.0106 23.5542 72.4877 24.1216 72.8212 24.8674C73.1547 25.6085 73.3215 26.4724 73.3215 27.4591V28.0983ZM71.9943 27.4452C71.9943 26.2455 71.7535 25.326 71.2717 24.6867C70.79 24.0429 70.116 23.7209 69.2498 23.7209C68.4067 23.7209 67.742 24.0429 67.2556 24.6867C66.7739 25.326 66.5261 26.2153 66.5122 27.3549V28.0983C66.5122 29.261 66.7554 30.1758 67.2417 30.8429C67.7327 31.5053 68.4067 31.8365 69.2637 31.8365C70.1253 31.8365 70.7923 31.5238 71.2648 30.8985C71.7373 30.2685 71.9804 29.3675 71.9943 28.1956V27.4452Z" fill="#F2F2F2"></path><path d="M79.0329 28.7376H76.6566V32.8301H75.3156V22.7134H78.6647C79.8042 22.7134 80.6796 22.9728 81.2911 23.4916C81.9072 24.0104 82.2152 24.7655 82.2152 25.7568C82.2152 26.3867 82.0438 26.9356 81.701 27.4035C81.3629 27.8713 80.8904 28.2211 80.2836 28.4527L82.6599 32.7467V32.8301H81.2286L79.0329 28.7376ZM76.6566 27.6467H78.7063C79.3687 27.6467 79.8945 27.4753 80.2836 27.1325C80.6773 26.7897 80.8742 26.3311 80.8742 25.7568C80.8742 25.1314 80.6866 24.652 80.3114 24.3185C79.9408 23.985 79.4035 23.8159 78.6994 23.8112H76.6566V27.6467Z" fill="#F2F2F2"></path><path d="M31.92 72.1701L25.65 76.1701L25.03 72.1701H17.23V52.8501H69.51V72.1701H31.92Z" fill="#F2F2F2"></path><path d="M110.25 51.9299L105.61 54.8799L105.15 51.9299H99.39V31.1299H147.74V51.9299H110.25Z" fill="#F2F2F2"></path><path d="M25.3112 61.0907H21.7865V63.9731H25.881V64.8501H20.714V56.7169H25.8251V57.5995H21.7865V60.2137H25.3112V61.0907Z" fill="white"></path><path d="M30.1989 61.56H28.2885V64.8501H27.2104V56.7169H29.9029C30.8189 56.7169 31.5228 56.9255 32.0143 57.3426C32.5096 57.7597 32.7573 58.3667 32.7573 59.1636C32.7573 59.67 32.6195 60.1113 32.3439 60.4875C32.0721 60.8636 31.6922 61.1447 31.2044 61.3309L33.1148 64.783V64.8501H31.9641L30.1989 61.56ZM28.2885 60.683H29.9364C30.4689 60.683 30.8916 60.5452 31.2044 60.2696C31.5209 59.994 31.6792 59.6254 31.6792 59.1636C31.6792 58.6608 31.5284 58.2754 31.2267 58.0073C30.9288 57.7392 30.4968 57.6032 29.9308 57.5995H28.2885V60.683Z" fill="white"></path><path d="M37.2484 61.56H35.338V64.8501H34.2599V56.7169H36.9523C37.8684 56.7169 38.5722 56.9255 39.0638 57.3426C39.5591 57.7597 39.8067 58.3667 39.8067 59.1636C39.8067 59.67 39.6689 60.1113 39.3934 60.4875C39.1215 60.8636 38.7417 61.1447 38.2538 61.3309L40.1642 64.783V64.8501H39.0135L37.2484 61.56ZM35.338 60.683H36.9858C37.5184 60.683 37.941 60.5452 38.2538 60.2696C38.5704 59.994 38.7286 59.6254 38.7286 59.1636C38.7286 58.6608 38.5778 58.2754 38.2762 58.0073C37.9783 57.7392 37.5463 57.6032 36.9802 57.5995H35.338V60.683Z" fill="white"></path><path d="M47.5712 61.046C47.5712 61.843 47.4371 62.5394 47.169 63.1352C46.9009 63.7273 46.521 64.1798 46.0295 64.4926C45.5379 64.8054 44.9644 64.9618 44.309 64.9618C43.6685 64.9618 43.1006 64.8054 42.6053 64.4926C42.11 64.176 41.7246 63.7273 41.449 63.1464C41.1771 62.5617 41.0375 61.8858 41.03 61.1187V60.5321C41.03 59.7501 41.166 59.0593 41.4378 58.4598C41.7097 57.8602 42.0932 57.4022 42.5885 57.0856C43.0875 56.7654 43.6573 56.6052 44.2978 56.6052C44.9495 56.6052 45.523 56.7635 46.0183 57.08C46.5173 57.3928 46.9009 57.849 47.169 58.4486C47.4371 59.0444 47.5712 59.7389 47.5712 60.5321V61.046ZM46.5043 60.521C46.5043 59.5565 46.3106 58.8173 45.9233 58.3033C45.536 57.7857 44.9942 57.5269 44.2978 57.5269C43.6201 57.5269 43.0857 57.7857 42.6947 58.3033C42.3074 58.8173 42.1081 59.5323 42.097 60.4483V61.046C42.097 61.9808 42.2925 62.7162 42.6835 63.2525C43.0782 63.785 43.6201 64.0513 44.309 64.0513C45.0016 64.0513 45.5379 63.7999 45.9177 63.2972C46.2976 62.7907 46.4931 62.0664 46.5043 61.1242V60.521Z" fill="white"></path><path d="M52.1628 61.56H50.2524V64.8501H49.1743V56.7169H51.8668C52.7829 56.7169 53.4867 56.9255 53.9782 57.3426C54.4735 57.7597 54.7212 58.3667 54.7212 59.1636C54.7212 59.67 54.5834 60.1113 54.3078 60.4875C54.036 60.8636 53.6561 61.1447 53.1683 61.3309L55.0787 64.783V64.8501H53.928L52.1628 61.56ZM50.2524 60.683H51.9003C52.4328 60.683 52.8555 60.5452 53.1683 60.2696C53.4848 59.994 53.6431 59.6254 53.6431 59.1636C53.6431 58.6608 53.4923 58.2754 53.1906 58.0073C52.8927 57.7392 52.4607 57.6032 51.8947 57.5995H50.2524V60.683Z" fill="white"></path><path d="M106.752 40.5389H103.348V43.323H107.303V44.1701H102.312V36.3142H107.249V37.1667H103.348V39.6918H106.752V40.5389Z" fill="white"></path><path d="M111.473 40.9921H109.628V44.1701H108.587V36.3142H111.188C112.072 36.3142 112.752 36.5156 113.227 36.9185C113.705 37.3214 113.945 37.9077 113.945 38.6774C113.945 39.1666 113.812 39.5929 113.545 39.9562C113.283 40.3195 112.916 40.591 112.445 40.7709L114.29 44.1053V44.1701H113.178L111.473 40.9921ZM109.628 40.145H111.22C111.734 40.145 112.143 40.0119 112.445 39.7458C112.75 39.4796 112.903 39.1235 112.903 38.6774C112.903 38.1918 112.758 37.8196 112.466 37.5606C112.178 37.3016 111.761 37.1703 111.214 37.1667H109.628V40.145Z" fill="white"></path><path d="M118.283 40.9921H116.437V44.1701H115.396V36.3142H117.997C118.881 36.3142 119.561 36.5156 120.036 36.9185C120.515 37.3214 120.754 37.9077 120.754 38.6774C120.754 39.1666 120.621 39.5929 120.354 39.9562C120.092 40.3195 119.725 40.591 119.254 40.7709L121.099 44.1053V44.1701H119.988L118.283 40.9921ZM116.437 40.145H118.029C118.543 40.145 118.952 40.0119 119.254 39.7458C119.56 39.4796 119.712 39.1235 119.712 38.6774C119.712 38.1918 119.567 37.8196 119.275 37.5606C118.988 37.3016 118.57 37.1703 118.024 37.1667H116.437V40.145Z" fill="white"></path><path d="M128.253 40.4957C128.253 41.2655 128.124 41.9381 127.865 42.5136C127.606 43.0856 127.239 43.5226 126.764 43.8248C126.29 44.1269 125.736 44.278 125.103 44.278C124.484 44.278 123.935 44.1269 123.457 43.8248C122.978 43.519 122.606 43.0856 122.34 42.5244C122.077 41.9597 121.943 41.3069 121.935 40.5659V39.9993C121.935 39.244 122.067 38.5767 122.329 37.9976C122.592 37.4185 122.962 36.9761 123.441 36.6703C123.923 36.361 124.473 36.2063 125.092 36.2063C125.721 36.2063 126.275 36.3592 126.754 36.6649C127.236 36.9671 127.606 37.4077 127.865 37.9868C128.124 38.5623 128.253 39.2332 128.253 39.9993V40.4957ZM127.223 39.9885C127.223 39.0569 127.036 38.3429 126.662 37.8465C126.288 37.3465 125.764 37.0966 125.092 37.0966C124.437 37.0966 123.921 37.3465 123.543 37.8465C123.169 38.3429 122.977 39.0335 122.966 39.9184V40.4957C122.966 41.3986 123.155 42.109 123.532 42.627C123.914 43.1413 124.437 43.3985 125.103 43.3985C125.772 43.3985 126.29 43.1557 126.656 42.6701C127.023 42.1809 127.212 41.4813 127.223 40.5713V39.9885Z" fill="white"></path><path d="M132.689 40.9921H130.843V44.1701H129.802V36.3142H132.403C133.288 36.3142 133.967 36.5156 134.442 36.9185C134.921 37.3214 135.16 37.9077 135.16 38.6774C135.16 39.1666 135.027 39.5929 134.76 39.9562C134.498 40.3195 134.131 40.591 133.66 40.7709L135.505 44.1053V44.1701H134.394L132.689 40.9921ZM130.843 40.145H132.435C132.949 40.145 133.358 40.0119 133.66 39.7458C133.966 39.4796 134.118 39.1235 134.118 38.6774C134.118 38.1918 133.973 37.8196 133.681 37.5606C133.394 37.3016 132.976 37.1703 132.43 37.1667H130.843V40.145Z" fill="white"></path><path d="M72 51.5499L71.27 46.8499H35.27V13.3899H93.87V46.8499H79.37L72 51.5499ZM36.2 45.9199H72L72.63 50.0199L79.07 45.9199H92.93V14.3099H36.17L36.2 45.9199Z" fill="#E8E8E8"></path><path d="M126.23 89.8701L125.69 86.4201H118.55V65.8301H137.75V86.4201H131.65L126.23 89.8701ZM119.47 85.5001H126.47L126.91 88.3401L131.37 85.5001H136.82V66.7501H119.47V85.5001Z" fill="#E8E8E8"></path><path d="M122.972 68.8044L121.236 70.4177L133.339 83.4423L135.075 81.829L122.972 68.8044Z" fill="#E8E8E8"></path><path d="M133.333 68.8055L121.229 81.8301L122.966 83.4434L135.069 70.4188L133.333 68.8055Z" fill="#E8E8E8"></path><path d="M33.0242 88.76L31.2881 90.3733L43.3913 103.398L45.1274 101.785L33.0242 88.76Z" fill="#E8E8E8"></path><path d="M43.1151 88.8189L31.0247 101.798L32.7548 103.41L44.8452 90.4305L43.1151 88.8189Z" fill="#E8E8E8"></path><path d="M114.08 107.85C113.783 107.851 113.493 107.765 113.245 107.601C112.998 107.437 112.805 107.204 112.69 106.93C109.77 100.12 104.69 100.34 104.59 100.34C104.382 100.373 104.17 100.363 103.966 100.309C103.762 100.256 103.572 100.16 103.408 100.029C103.243 99.8975 103.108 99.7331 103.011 99.5464C102.914 99.3596 102.856 99.1546 102.843 98.9445C102.83 98.7344 102.861 98.5238 102.933 98.3263C103.006 98.1288 103.12 97.9487 103.266 97.7976C103.413 97.6465 103.59 97.5277 103.785 97.4489C103.98 97.3701 104.19 97.3329 104.4 97.3399C104.7 97.3399 111.72 96.9999 115.48 105.76C115.559 105.944 115.601 106.141 115.604 106.341C115.607 106.542 115.57 106.74 115.495 106.926C115.421 107.112 115.311 107.281 115.171 107.424C115.031 107.567 114.864 107.681 114.68 107.76C114.487 107.828 114.284 107.858 114.08 107.85Z" fill="#333333"></path><path d="M53.84 107.85C53.6341 107.849 53.4305 107.808 53.24 107.73C53.0559 107.652 52.8891 107.537 52.7495 107.394C52.6099 107.251 52.5001 107.081 52.4266 106.895C52.3531 106.709 52.3173 106.51 52.3213 106.31C52.3254 106.11 52.3691 105.913 52.45 105.73C56.2 96.9999 63.22 97.2999 63.52 97.3199C63.7188 97.3301 63.9137 97.3797 64.0932 97.466C64.2726 97.5522 64.4331 97.6733 64.5653 97.8223C64.6975 97.9712 64.7987 98.145 64.863 98.3334C64.9273 98.5219 64.9535 98.7212 64.94 98.9199C64.9167 99.3196 64.7367 99.694 64.439 99.9618C64.1412 100.23 63.7499 100.369 63.35 100.35C63.11 100.35 58.11 100.23 55.24 106.93C55.1224 107.204 54.927 107.437 54.6781 107.6C54.4292 107.764 54.1378 107.851 53.84 107.85Z" fill="#333333"></path><path d="M47.28 107.61C46.9583 107.608 46.6454 107.504 46.3866 107.313C46.1277 107.122 45.9361 106.854 45.8394 106.547C45.7426 106.24 45.7458 105.911 45.8483 105.606C45.9509 105.301 46.1475 105.036 46.41 104.85C47.5287 104.102 48.8442 103.703 50.19 103.703C51.5358 103.703 52.8513 104.102 53.97 104.85C54.1475 104.957 54.3012 105.099 54.4217 105.268C54.5423 105.437 54.627 105.628 54.6708 105.831C54.7145 106.033 54.7164 106.243 54.6763 106.446C54.6361 106.649 54.5548 106.842 54.4373 107.013C54.3198 107.184 54.1686 107.329 53.9931 107.439C53.8175 107.549 53.6212 107.622 53.4164 107.654C53.2115 107.686 53.0024 107.675 52.8018 107.623C52.6012 107.57 52.4134 107.478 52.25 107.35C51.6379 106.954 50.9242 106.743 50.195 106.743C49.4657 106.743 48.7521 106.954 48.14 107.35C47.885 107.519 47.586 107.61 47.28 107.61Z" fill="#333333"></path><path d="M48.8101 110.9C48.6253 110.902 48.442 110.868 48.2701 110.8C48.0788 110.729 47.9038 110.621 47.7554 110.481C47.607 110.341 47.4882 110.173 47.4061 109.987C47.324 109.8 47.2802 109.599 47.2775 109.395C47.2747 109.191 47.313 108.989 47.3901 108.8C47.8669 107.674 48.6645 106.714 49.6834 106.038C50.7023 105.362 51.8975 105.001 53.12 105C53.4758 105.058 53.7993 105.241 54.0327 105.516C54.2661 105.791 54.3943 106.139 54.3943 106.5C54.3943 106.861 54.2661 107.209 54.0327 107.484C53.7993 107.759 53.4758 107.942 53.12 108C52.5114 108.003 51.9165 108.181 51.4059 108.513C50.8954 108.844 50.4908 109.315 50.2401 109.87C50.137 110.168 49.9442 110.427 49.6882 110.612C49.4322 110.796 49.1255 110.897 48.8101 110.9Z" fill="#333333"></path><path d="M53.11 112.09C52.922 112.092 52.7353 112.058 52.56 111.99C52.3696 111.918 52.1957 111.809 52.0483 111.669C51.9009 111.529 51.7832 111.36 51.7021 111.174C51.621 110.987 51.5781 110.786 51.576 110.583C51.5739 110.38 51.6127 110.178 51.69 109.99C52.49 107.93 51.91 106.99 51.88 106.99V107.04L54.25 105.15C54.43 105.37 55.93 107.41 54.48 111.15C54.3685 111.423 54.1794 111.658 53.9359 111.825C53.6924 111.992 53.4052 112.084 53.11 112.09Z" fill="#333333"></path><path d="M114 107.62C113.676 107.619 113.362 107.515 113.101 107.322C112.841 107.13 112.649 106.86 112.553 106.551C112.457 106.242 112.462 105.91 112.568 105.604C112.674 105.298 112.874 105.034 113.14 104.85C114.259 104.102 115.574 103.703 116.92 103.703C118.266 103.703 119.581 104.102 120.7 104.85C120.88 104.956 121.036 105.099 121.158 105.268C121.28 105.438 121.366 105.63 121.411 105.834C121.455 106.039 121.457 106.25 121.416 106.455C121.376 106.659 121.293 106.854 121.174 107.025C121.055 107.197 120.901 107.342 120.724 107.452C120.546 107.561 120.347 107.633 120.141 107.663C119.934 107.692 119.723 107.679 119.522 107.623C119.32 107.568 119.133 107.471 118.97 107.34C118.356 106.943 117.641 106.731 116.91 106.731C116.179 106.731 115.464 106.943 114.85 107.34C114.602 107.518 114.305 107.615 114 107.62Z" fill="#333333"></path><path d="M118.28 110.9C117.97 110.897 117.668 110.799 117.414 110.621C117.161 110.442 116.967 110.191 116.86 109.9C116.608 109.346 116.203 108.876 115.693 108.544C115.183 108.213 114.588 108.034 113.98 108.03C113.781 108.033 113.584 107.996 113.4 107.921C113.216 107.847 113.048 107.737 112.906 107.598C112.765 107.458 112.653 107.292 112.576 107.109C112.499 106.925 112.46 106.729 112.46 106.53C112.459 106.328 112.498 106.127 112.575 105.94C112.652 105.754 112.765 105.584 112.909 105.441C113.052 105.299 113.222 105.187 113.41 105.111C113.597 105.035 113.798 104.997 114 105C115.225 105.003 116.422 105.367 117.441 106.046C118.46 106.726 119.256 107.69 119.73 108.82C119.807 109.009 119.845 109.211 119.843 109.415C119.84 109.619 119.796 109.82 119.714 110.006C119.632 110.193 119.513 110.361 119.365 110.501C119.216 110.641 119.041 110.749 118.85 110.82C118.667 110.885 118.473 110.912 118.28 110.9Z" fill="#333333"></path><path d="M114 112.09C113.691 112.089 113.389 111.993 113.136 111.814C112.884 111.635 112.693 111.382 112.59 111.09C111.14 107.37 112.64 105.33 112.81 105.09L115.19 106.98V106.93C115.19 106.93 114.58 107.93 115.38 109.93C115.47 110.16 115.502 110.409 115.474 110.654C115.445 110.899 115.357 111.134 115.217 111.337C115.077 111.54 114.889 111.706 114.67 111.82C114.451 111.934 114.207 111.992 113.96 111.99L114 112.09Z" fill="#333333"></path><path d="M96.63 140.67H72.48C70.8397 140.67 69.51 142 69.51 143.64V143.65C69.51 145.29 70.8397 146.62 72.48 146.62H96.63C98.2703 146.62 99.6 145.29 99.6 143.65V143.64C99.6 142 98.2703 140.67 96.63 140.67Z" fill="#F2F2F2"></path><path d="M104.49 101.28C104.49 87.7699 101.6 85.9999 101.6 85.9999C101.6 85.9999 98 75.0599 92.28 74.7799C88.17 74.5699 86.85 83.7799 86.85 83.7799C84.918 83.5299 82.9619 83.5299 81.03 83.7799C81.03 83.7799 79.71 74.5299 75.6 74.7799C69.88 75.0599 66.28 85.9999 66.28 85.9999C66.28 85.9999 63.39 87.7699 63.39 101.28C63.39 114.79 63.2 119 65.45 123C67.7 127 71.71 130.14 83.94 130.14C96.17 130.14 100.19 127.01 102.44 123C104.69 118.99 104.49 114.78 104.49 101.28Z" fill="white"></path><path d="M104.93 101.28C104.93 91.03 103.27 87.54 102.47 86.45C102.47 98.35 102.62 116.62 100.66 120.1C98.7 123.58 95.15 126.39 84.38 126.39C73.61 126.39 70.09 123.63 68.11 120.1C66.13 116.57 66.29 98.35 66.3 86.45C65.5 87.54 63.83 91.03 63.83 101.28C63.83 114.78 63.64 118.99 65.89 123C68.14 127.01 72.15 130.14 84.38 130.14C96.61 130.14 100.63 127.01 102.88 123C105.13 118.99 104.93 114.78 104.93 101.28Z" fill="#DCDCDC"></path><path d="M83.94 130.6C70.94 130.6 67.2 127.06 65.05 123.22C62.9 119.38 62.92 115.6 62.93 104.22V101.22C62.93 95.57 63.43 91.22 64.4 88.37C64.6576 87.3574 65.1706 86.4278 65.89 85.67C66.34 84.34 69.89 74.54 75.58 74.26C77.51 74.16 79.09 75.76 80.29 79C80.7865 80.3821 81.1645 81.8039 81.42 83.25C83.082 83.0736 84.758 83.0736 86.42 83.25C86.6754 81.8039 87.0535 80.3821 87.55 79C88.74 75.76 90.33 74.16 92.25 74.26C97.94 74.54 101.49 84.34 101.95 85.67C102.665 86.4297 103.174 87.3589 103.43 88.37C104.43 91.24 104.9 95.57 104.9 101.22V104.22C104.9 115.55 104.9 119.37 102.79 123.22C101.536 125.574 99.5187 127.432 97.07 128.49C94 129.91 89.7 130.6 83.94 130.6ZM66.52 86.4C65.8484 87.1296 65.3885 88.0285 65.19 89C64.58 90.91 63.85 94.6 63.85 101.31V104.31C63.85 115.46 63.85 119.22 65.85 122.81C67.85 126.4 71.45 129.72 83.94 129.72C96.43 129.72 100 126.36 102 122.77C104 119.18 104 115.42 104 104.27V101.27C104 94.56 103.27 90.87 102.66 88.96C102 86.87 101.33 86.38 101.32 86.38C101.233 86.3242 101.169 86.239 101.14 86.14C101.14 86.03 97.57 75.49 92.23 75.23H92.12C89.12 75.23 87.63 81.45 87.28 83.88C87.2626 83.9987 87.1995 84.1059 87.1043 84.1787C87.009 84.2516 86.889 84.2843 86.77 84.27C84.8742 84.03 82.9557 84.03 81.06 84.27C81.0008 84.2784 80.9405 84.275 80.8827 84.2599C80.8249 84.2448 80.7707 84.2183 80.7232 84.182C80.6757 84.1457 80.6359 84.1003 80.6062 84.0484C80.5765 83.9966 80.5573 83.9393 80.55 83.88C80.2 81.43 78.62 75.08 75.55 75.24C70.2 75.5 66.67 86.04 66.64 86.15C66.5996 86.2514 66.53 86.3384 66.44 86.4H66.52Z" fill="#333333"></path><path d="M81.09 130.28C81.16 133.79 81.51 136.68 81.57 140.19L81.63 142.29C81.74 143.46 80.35 144 79.14 144.08C78.4217 144.142 77.6979 144.081 77 143.9C76.5839 143.849 76.1924 143.675 75.8754 143.401C75.5583 143.127 75.3302 142.764 75.22 142.36C75.0396 141.863 75.0229 141.321 75.1722 140.814C75.3215 140.306 75.6291 139.86 76.0501 139.54C76.3054 139.35 76.5888 139.202 76.89 139.1C77.0755 139.041 77.2665 139.001 77.46 138.98C77.34 135.69 77.26 133.42 77.14 130.14L81.09 130.28Z" fill="#333333"></path><path d="M87.4199 130.28C87.3599 133.79 87 136.68 86.94 140.19V142.29C86.82 143.46 88.22 144 89.43 144.08C90.1417 144.142 90.8588 144.081 91.55 143.9C91.967 143.852 92.3599 143.679 92.6773 143.404C92.9948 143.13 93.2223 142.766 93.33 142.36C93.5136 141.863 93.532 141.32 93.3825 140.812C93.2329 140.304 92.9234 139.858 92.5 139.54C92.2471 139.346 91.963 139.198 91.66 139.1C91.4775 139.042 91.29 139.002 91.0999 138.98C91.2199 135.69 91.2999 133.42 91.4199 130.14L87.4199 130.28Z" fill="#333333"></path><path d="M84.1099 98.4999C87.5175 98.4999 90.2799 95.7375 90.2799 92.3299C90.2799 88.9223 87.5175 86.1599 84.1099 86.1599C80.7023 86.1599 77.9399 88.9223 77.9399 92.3299C77.9399 95.7375 80.7023 98.4999 84.1099 98.4999Z" fill="#333333"></path><path d="M87.86 93.3201L88.39 93.9501C87.7521 94.6335 87.0374 95.2408 86.26 95.7601L87.86 93.3201Z" fill="white"></path><path d="M85.78 90.3401L85.25 91.2401H86.84L85.78 90.3401Z" fill="white"></path><path d="M80.4399 92.3301H81.1299L82.3999 94.1801C81.959 94.0316 81.5554 93.7894 81.2171 93.47C80.8787 93.1506 80.6136 92.7617 80.4399 92.3301Z" fill="white"></path><path d="M73.51 92.1099C74.6091 92.1099 75.5 91.2189 75.5 90.1199C75.5 89.0208 74.6091 88.1299 73.51 88.1299C72.411 88.1299 71.52 89.0208 71.52 90.1199C71.52 91.2189 72.411 92.1099 73.51 92.1099Z" fill="#333333"></path><path d="M94.71 92.1099C95.809 92.1099 96.7 91.2189 96.7 90.1199C96.7 89.0208 95.809 88.1299 94.71 88.1299C93.6109 88.1299 92.72 89.0208 92.72 90.1199C92.72 91.2189 93.6109 92.1099 94.71 92.1099Z" fill="#333333"></path><path d="M70.71 85.55C70.5597 85.5978 70.3989 85.6013 70.2468 85.5601C70.0946 85.5188 69.9575 85.4346 69.852 85.3175C69.7465 85.2003 69.677 85.0553 69.6518 84.8996C69.6266 84.744 69.6468 84.5844 69.71 84.44C70.71 82.07 72.71 77.91 74.71 77.44C76.93 76.98 77.89 81.31 78.21 83.22C78.2345 83.3343 78.2346 83.4524 78.2102 83.5668C78.1859 83.6811 78.1377 83.789 78.0688 83.8834C77.9999 83.9778 77.9118 84.0566 77.8103 84.1146C77.7089 84.1726 77.5963 84.2085 77.48 84.22C75.1873 84.455 72.9211 84.9002 70.71 85.55Z" fill="#DCDCDC"></path><path d="M96.91 85.55C97.0602 85.5978 97.2211 85.6013 97.3732 85.5601C97.5254 85.5188 97.6624 85.4346 97.768 85.3175C97.8735 85.2003 97.943 85.0553 97.9682 84.8996C97.9934 84.744 97.9732 84.5844 97.91 84.44C96.91 82.07 94.91 77.91 92.91 77.44C90.69 76.98 89.73 81.31 89.42 83.22C89.3921 83.3338 89.3893 83.4522 89.4116 83.5672C89.4339 83.6822 89.4809 83.791 89.5494 83.886C89.6178 83.9811 89.7061 84.0602 89.808 84.1178C89.91 84.1755 90.0233 84.2103 90.14 84.22C92.4328 84.4541 94.6991 84.8993 96.91 85.55Z" fill="#DCDCDC"></path><path d="M122.56 131.51C122.56 131.51 123.39 129.56 122.56 129.16C121.73 128.76 121.56 129.16 121.56 127.95C121.56 126.74 120.75 126.95 120.07 127.19C119.39 127.43 119.53 125.8 119.43 124.28C119.33 122.76 119.43 121.2 118.25 121.4C117.07 121.6 117.33 125.21 117.25 126.68C117.17 128.15 116.25 126.68 115.54 126.92C114.83 127.16 115.22 129.16 115.22 129.16C117.024 129.357 118.79 129.818 120.46 130.53C118.764 129.898 117.008 129.439 115.22 129.16C114.841 129.05 114.434 129.094 114.086 129.281C113.738 129.468 113.478 129.783 113.36 130.16L111.15 137.75C111.04 138.129 111.084 138.536 111.271 138.884C111.458 139.231 111.773 139.492 112.15 139.61C114.296 140.498 116.533 141.149 118.82 141.55C119.201 141.662 119.61 141.621 119.96 141.433C120.31 141.246 120.572 140.929 120.69 140.55L122.89 132.95C122.965 132.702 122.974 132.439 122.916 132.186C122.858 131.934 122.735 131.701 122.56 131.51Z" fill="white"></path><path d="M123.79 134.26L122.94 134.02L122.43 135.7L123.3 135.95C123.392 135.978 123.469 136.04 123.516 136.124C123.563 136.208 123.575 136.307 123.55 136.4L123.04 138.16C123.01 138.25 122.947 138.325 122.863 138.37C122.779 138.415 122.681 138.425 122.59 138.4L121.76 138.16L121.23 139.84L122.1 140.09C122.367 140.168 122.646 140.193 122.922 140.162C123.198 140.132 123.466 140.048 123.709 139.914C123.952 139.78 124.167 139.6 124.341 139.383C124.514 139.166 124.643 138.917 124.72 138.65L125.24 136.89C125.395 136.349 125.329 135.769 125.057 135.276C124.786 134.783 124.33 134.418 123.79 134.26Z" fill="white"></path><path d="M114.22 125.38C115.98 125.23 114.97 122.88 113.63 123.54C112.75 124 112.46 125.53 114.22 125.38Z" fill="white"></path><path d="M122.28 121.31C123.2 121.9 124.19 118.75 123.05 118.56C122.23 118.43 121.36 120.72 122.28 121.31Z" fill="white"></path><path d="M124.36 134.43L123.74 136.23L122.67 135.82L122.94 134.02L124.36 134.43Z" fill="#F2F2F2"></path><path d="M122.92 138.34L122.29 140.14L121.23 139.73L121.5 137.93L122.92 138.34Z" fill="#F2F2F2"></path><path d="M113.36 130.19C113.36 130.19 121.58 132.13 122.93 133.19L120.31 141.19L118.14 141.43L112.14 139.62L111.06 138.26L113.36 130.19Z" fill="#F2F2F2"></path><path d="M119.26 142.1C119.084 142.101 118.909 142.078 118.74 142.03C116.437 141.622 114.184 140.968 112.02 140.08C111.531 139.921 111.122 139.58 110.879 139.127C110.635 138.675 110.574 138.146 110.71 137.65L112.91 130.06C113.061 129.568 113.396 129.154 113.845 128.902C114.293 128.651 114.822 128.582 115.32 128.71C117.638 129.094 119.899 129.766 122.05 130.71C122.537 130.869 122.944 131.209 123.187 131.659C123.431 132.109 123.493 132.636 123.36 133.13L121.15 140.73C121.025 141.135 120.775 141.49 120.435 141.743C120.095 141.997 119.684 142.136 119.26 142.14V142.1ZM114.8 129.56C114.573 129.553 114.35 129.623 114.168 129.759C113.987 129.896 113.857 130.09 113.8 130.31L111.59 137.91C111.546 138.041 111.53 138.18 111.542 138.318C111.554 138.456 111.595 138.59 111.662 138.711C111.729 138.832 111.82 138.938 111.93 139.022C112.039 139.107 112.166 139.167 112.3 139.2C114.415 140.07 116.618 140.711 118.87 141.11C119.001 141.15 119.138 141.162 119.274 141.147C119.41 141.131 119.542 141.088 119.66 141.02C119.781 140.956 119.888 140.869 119.974 140.762C120.06 140.655 120.124 140.532 120.16 140.4L122.37 132.81C122.448 132.543 122.416 132.257 122.283 132.013C122.15 131.77 121.926 131.589 121.66 131.51H121.61C119.513 130.601 117.308 129.962 115.05 129.61H114.99C114.929 129.587 114.865 129.57 114.8 129.56Z" fill="#333333"></path><path d="M122.69 140.63C122.447 140.631 122.204 140.598 121.97 140.53L121.1 140.28C120.981 140.242 120.881 140.16 120.82 140.05C120.775 139.938 120.775 139.812 120.82 139.7L121.35 138.02C121.385 137.906 121.463 137.811 121.568 137.754C121.673 137.698 121.796 137.686 121.91 137.72L122.65 137.93L123.11 136.37L122.33 136.14C122.273 136.123 122.219 136.095 122.173 136.057C122.127 136.019 122.088 135.973 122.06 135.92C122.016 135.808 122.016 135.683 122.06 135.57L122.57 133.88C122.605 133.764 122.684 133.665 122.791 133.607C122.898 133.549 123.023 133.536 123.14 133.57L123.99 133.82C124.317 133.913 124.621 134.071 124.886 134.284C125.15 134.497 125.369 134.761 125.53 135.06C125.699 135.362 125.805 135.694 125.843 136.038C125.881 136.381 125.849 136.729 125.75 137.06L125.24 138.82C125.147 139.145 124.989 139.448 124.776 139.711C124.563 139.974 124.299 140.191 124 140.35C123.598 140.562 123.144 140.659 122.69 140.63ZM121.81 139.53L122.23 139.65C122.652 139.77 123.104 139.719 123.49 139.51C123.681 139.404 123.849 139.26 123.985 139.089C124.12 138.917 124.221 138.721 124.28 138.51L124.79 136.75C124.854 136.542 124.875 136.322 124.851 136.105C124.827 135.889 124.759 135.679 124.65 135.49C124.546 135.297 124.403 135.128 124.232 134.992C124.06 134.856 123.862 134.757 123.65 134.7L123.23 134.58L122.99 135.38L123.41 135.5C123.616 135.561 123.789 135.699 123.894 135.886C123.998 136.073 124.026 136.293 123.97 136.5L123.46 138.26C123.397 138.464 123.258 138.635 123.071 138.738C122.885 138.84 122.666 138.866 122.46 138.81L122.06 138.7L121.81 139.53Z" fill="#333333"></path><path d="M115.03 132.9C115.477 132.9 115.84 132.537 115.84 132.09C115.84 131.643 115.477 131.28 115.03 131.28C114.583 131.28 114.22 131.643 114.22 132.09C114.22 132.537 114.583 132.9 115.03 132.9Z" fill="#333333"></path><path d="M120.31 134.43C120.757 134.43 121.12 134.067 121.12 133.62C121.12 133.173 120.757 132.81 120.31 132.81C119.863 132.81 119.5 133.173 119.5 133.62C119.5 134.067 119.863 134.43 120.31 134.43Z" fill="#333333"></path><path d="M117.64 134.35C118.474 134.35 119.15 133.674 119.15 132.84C119.15 132.006 118.474 131.33 117.64 131.33C116.806 131.33 116.13 132.006 116.13 132.84C116.13 133.674 116.806 134.35 117.64 134.35Z" fill="#333333"></path><path d="M122.56 132C122.479 132.001 122.4 131.98 122.33 131.94C120.104 130.752 117.682 129.976 115.18 129.65C115.081 129.64 114.989 129.598 114.915 129.532C114.841 129.465 114.791 129.377 114.77 129.28C114.65 128.7 114.35 126.79 115.42 126.51C115.84 126.439 116.271 126.536 116.62 126.78L116.78 126.86C116.78 126.86 116.78 126.76 116.78 126.69C116.78 126.44 116.78 126.12 116.78 125.77C116.78 123.77 116.78 121.2 118.12 120.98C118.293 120.943 118.471 120.944 118.644 120.982C118.816 121.02 118.979 121.094 119.12 121.2C119.7 121.67 119.75 122.63 119.8 123.73V124.28C119.8 124.62 119.8 124.96 119.8 125.28C119.802 125.769 119.842 126.257 119.92 126.74C120.158 126.634 120.417 126.584 120.677 126.594C120.937 126.605 121.192 126.675 121.42 126.8C121.611 126.934 121.764 127.115 121.866 127.325C121.967 127.535 122.014 127.767 122 128C121.985 128.176 121.985 128.354 122 128.53H122.14C122.347 128.587 122.548 128.664 122.74 128.76C123.91 129.32 123.13 131.31 122.96 131.7C122.936 131.759 122.899 131.812 122.852 131.855C122.806 131.898 122.75 131.93 122.69 131.95C122.65 131.974 122.606 131.991 122.56 132ZM115.56 128.77C117.893 129.098 120.154 129.815 122.25 130.89C122.44 130.27 122.48 129.69 122.31 129.61C122.16 129.534 122.003 129.474 121.84 129.43C121.18 129.23 121.02 128.95 121.02 127.98C121.02 127.69 120.96 127.57 120.92 127.54C120.88 127.51 120.57 127.54 120.13 127.66C120.017 127.699 119.897 127.711 119.779 127.695C119.661 127.679 119.549 127.637 119.45 127.57C118.99 127.24 118.96 126.43 118.93 125.31C118.93 124.99 118.93 124.66 118.93 124.31V123.74C118.93 123.01 118.85 122.1 118.59 121.89C118.59 121.89 118.5 121.82 118.31 121.89C117.72 121.99 117.73 124.89 117.74 125.78C117.74 126.14 117.74 126.47 117.74 126.78C117.757 126.969 117.726 127.16 117.651 127.334C117.576 127.509 117.459 127.662 117.31 127.78C117.13 127.85 116.935 127.871 116.744 127.843C116.553 127.815 116.373 127.738 116.22 127.62C116.05 127.53 115.79 127.4 115.69 127.43C115.56 127.854 115.533 128.303 115.61 128.74L115.56 128.77Z" fill="#333333"></path><path d="M114 125.85C113.687 125.896 113.368 125.83 113.099 125.664C112.83 125.497 112.628 125.241 112.53 124.94C112.461 124.58 112.512 124.208 112.677 123.88C112.842 123.553 113.11 123.289 113.44 123.13C113.699 122.996 113.992 122.943 114.281 122.978C114.57 123.014 114.842 123.137 115.06 123.33C115.289 123.523 115.458 123.776 115.548 124.061C115.638 124.346 115.646 124.651 115.57 124.94C115.47 125.204 115.293 125.432 115.06 125.593C114.828 125.754 114.552 125.84 114.27 125.84L114 125.85ZM114.11 123.85C114.016 123.852 113.923 123.876 113.84 123.92C113.703 123.983 113.589 124.088 113.514 124.218C113.439 124.349 113.406 124.5 113.42 124.65C113.49 124.92 114.03 124.89 114.19 124.88C114.35 124.87 114.63 124.81 114.69 124.62C114.711 124.504 114.701 124.384 114.661 124.274C114.621 124.163 114.551 124.065 114.46 123.99C114.358 123.911 114.229 123.875 114.1 123.89L114.11 123.85Z" fill="#333333"></path><path d="M122.52 121.84C122.347 121.836 122.178 121.788 122.03 121.7C121.712 121.41 121.5 121.023 121.428 120.599C121.355 120.175 121.426 119.739 121.63 119.36C121.96 118.51 122.55 118.02 123.13 118.11C123.343 118.153 123.537 118.259 123.689 118.414C123.841 118.569 123.942 118.766 123.98 118.98C124.061 119.467 124.02 119.967 123.861 120.434C123.702 120.902 123.43 121.323 123.07 121.66C122.908 121.773 122.717 121.835 122.52 121.84ZM123 119C122.847 119.109 122.718 119.247 122.62 119.407C122.522 119.567 122.457 119.745 122.43 119.93C122.31 120.38 122.36 120.77 122.54 120.93C122.738 120.721 122.892 120.475 122.991 120.205C123.091 119.935 123.135 119.647 123.12 119.36C123.09 119.24 123.06 119 123 119Z" fill="#333333"></path><path d="M108.77 143.64L107.86 141.32H109.51L109.07 136.43L113.65 140.22L115.45 138.42L116.63 140.84L120.67 139.63V141.83L123.3 141.1L122.28 143.64H108.77Z" fill="white"></path><path d="M122.28 144.1H108.77C108.678 144.099 108.588 144.071 108.511 144.02C108.435 143.968 108.375 143.895 108.34 143.81L107.43 141.49C107.396 141.423 107.378 141.35 107.378 141.275C107.378 141.2 107.396 141.126 107.43 141.06C107.473 140.999 107.53 140.95 107.596 140.915C107.662 140.88 107.735 140.861 107.81 140.86H109L108.61 136.47C108.601 136.38 108.619 136.289 108.662 136.209C108.705 136.129 108.77 136.063 108.85 136.02C108.925 135.968 109.014 135.941 109.105 135.941C109.196 135.941 109.285 135.968 109.36 136.02L113.62 139.55L115.12 138.05C115.172 137.996 115.237 137.955 115.308 137.933C115.38 137.91 115.456 137.906 115.53 137.92C115.601 137.932 115.668 137.961 115.725 138.005C115.783 138.048 115.829 138.105 115.86 138.17L116.86 140.24L120.53 139.14C120.599 139.121 120.672 139.118 120.743 139.13C120.813 139.142 120.881 139.169 120.94 139.21C120.995 139.255 121.04 139.311 121.071 139.375C121.102 139.439 121.119 139.509 121.12 139.58V141.18L123.17 140.61C123.253 140.585 123.341 140.584 123.424 140.607C123.507 140.63 123.582 140.676 123.64 140.74C123.694 140.806 123.73 140.885 123.744 140.969C123.758 141.053 123.75 141.14 123.72 141.22L122.72 143.76C122.695 143.858 122.639 143.944 122.559 144.006C122.479 144.068 122.381 144.101 122.28 144.1ZM109.08 143.18H122L122.57 141.8L120.84 142.28C120.77 142.299 120.697 142.302 120.626 142.288C120.554 142.274 120.488 142.244 120.43 142.2C120.374 142.156 120.329 142.1 120.297 142.036C120.266 141.972 120.25 141.901 120.25 141.83V140.25L116.8 141.25C116.697 141.285 116.586 141.281 116.486 141.238C116.386 141.196 116.306 141.118 116.26 141.02L115.36 139.17L114 140.55C113.915 140.627 113.805 140.67 113.69 140.67C113.575 140.67 113.465 140.627 113.38 140.55L109.64 137.46L109.98 141.26C109.988 141.323 109.982 141.386 109.963 141.447C109.944 141.507 109.912 141.563 109.87 141.61C109.827 141.658 109.775 141.696 109.716 141.722C109.658 141.748 109.594 141.761 109.53 141.76H108.53L109.08 143.18Z" fill="#333333"></path><path d="M97.3 89.3499C93.73 89.1799 92.45 87.7299 92.4 87.6699C92.3205 87.5771 92.281 87.4565 92.2904 87.3346C92.2998 87.2127 92.3572 87.0995 92.45 87.0199C92.5429 86.9403 92.6635 86.9009 92.7854 86.9103C92.9073 86.9197 93.0205 86.9771 93.1 87.0699C93.1 87.0699 94.23 88.2799 97.35 88.4299C97.4105 88.4337 97.4696 88.4494 97.524 88.4762C97.5783 88.5029 97.6269 88.5401 97.6668 88.5856C97.7068 88.6311 97.7373 88.6841 97.7568 88.7415C97.7762 88.7988 97.7841 88.8595 97.78 88.9199C97.7775 88.9799 97.763 89.0388 97.7373 89.0931C97.7117 89.1474 97.6754 89.196 97.6307 89.2361C97.586 89.2762 97.5337 89.3069 97.4769 89.3265C97.4201 89.346 97.36 89.354 97.3 89.3499Z" fill="#333333"></path><path d="M70.92 89.3499C70.8023 89.3526 70.6883 89.3091 70.6023 89.2287C70.5163 89.1484 70.4652 89.0375 70.46 88.9199C70.456 88.8594 70.4639 88.7988 70.4833 88.7414C70.5027 88.6841 70.5333 88.6311 70.5732 88.5856C70.6132 88.54 70.6617 88.5028 70.7161 88.4761C70.7705 88.4494 70.8296 88.4337 70.89 88.4299C74.03 88.2799 75.13 87.0799 75.15 87.0699C75.1868 87.0167 75.2344 86.9718 75.2898 86.9383C75.3451 86.9047 75.4068 86.8832 75.471 86.8752C75.5352 86.8671 75.6004 86.8727 75.6622 86.8915C75.7241 86.9103 75.7813 86.942 75.8302 86.9845C75.879 87.0269 75.9183 87.0792 75.9455 87.1379C75.9728 87.1965 75.9873 87.2603 75.9883 87.325C75.9892 87.3896 75.9765 87.4538 75.9509 87.5132C75.9254 87.5727 75.8876 87.626 75.84 87.6699C75.84 87.7299 74.52 89.1799 70.94 89.3499H70.92Z" fill="#333333"></path></svg>